# xmcd CD database file
#
# Track frame offsets:
#	150
#	20850
#	41260
#	58815
#	79405
#	111560
#	126670
#	150480
#	171285
#	195885
#	215555
#	247150
#	268620
#	285300
#	309760
#	328370
#
# Disc length: 4696 seconds
#
# Revision: 0
# Processed by: cddbd v1.4PL0 Copyright (c) Steve Scherf et al.
# Submitted via: CDex 1.40Release
#
DISCID=f0125610
DTITLE=Various Artist - Monday Nite Blues 73
DYEAR=1900
DGENRE=Blues
TTITLE0=PATRICK GREEN - GET DOWN, GET DOWN
TTITLE1=O.B.BRYANT - BLUES IN THE PARK
TTITLE2=TYRONE DAVIS - PO HOUSE
TTITLE3=ARTHUR FOY - I LIKE KISSING ON YOU
TTITLE4=KATRENIA - CAUSE I LOVE U
TTITLE5=WILLIE CLAYTON DROWNING IN THE SEA OF LOVE
TTITLE6=T.K. SOUL - SHE'S BAD
TTITLE7=OMAR CUNNINGHAM - HELL AT THE HOUSE
TTITLE8=DENISE LASALLE - STILL THE QUEEN
TTITLE9=P. GREEN - ROCK THE BOAT
TTITLE10=J. BLACKFOOT - IN MY BEDROOM
TTITLE11=EDDIE COTTON - LET'S STRAIGHTEN IT OUT
TTITLE12=CHARLES WILSON - SHOW ME WHAT U WORKIN WIT
TTITLE13=JACKIE NEAL - TWURK IT
TTITLE14=QUINN GOLDEN - JUNK IN YO TRUNK
TTITLE15=X-MAN - SHAKE IT
EXTD=ID3G: 0
EXTT0=
EXTT1=
EXTT2=
EXTT3=
EXTT4=
EXTT5=
EXTT6=
EXTT7=
EXTT8=
EXTT9=
EXTT10=
EXTT11=
EXTT12=
EXTT13=
EXTT14=
EXTT15=
PLAYORDER=
